<svg xmlns="http://www.w3.org/2000/svg" xmlns:ns1="http://sozi.baierouge.fr" xmlns:xlink="http://www.w3.org/1999/xlink" id="svg3419" version="1.1" viewBox="0 0 640 640"><title id="title7029">beer stein</title><defs id="defs3421"><linearGradient id="linearGradient4235" x1="447.9" x2="446.61" y1="63.078" y2="126.33" gradientTransform="matrix(1.341 0 0 1.3711 -296.64 -92.618)" gradientUnits="userSpaceOnUse"><stop id="stop4231" offset="0" style="stop-color:#cbcdb0"/><stop id="stop4233" offset="1" style="stop-color:#efb102"/></linearGradient><filter id="filter4271" width="1.357" height="1.047" x="-.178" y="-.024" color-interpolation-filters="sRGB"><feGaussianBlur id="feGaussianBlur4273" stdDeviation="1.055"/></filter><linearGradient id="linearGradient4314" x1="405.3" x2="411.76" y1="305.74" y2="286.38" gradientTransform="matrix(1.341 0 0 1.3711 -296.64 -92.618)" gradientUnits="userSpaceOnUse"><stop id="stop4310" offset="0" style="stop-color:#562809"/><stop id="stop4312" offset="1" style="stop-color:#eee;stop-opacity:.22566"/></linearGradient><linearGradient id="linearGradient4338" x1="394.26" x2="406.15" y1="92.514" y2="140.4" gradientUnits="userSpaceOnUse"><stop id="stop4334" offset="0" style="stop-color:#562809"/><stop id="stop4336" offset="1" style="stop-color:#562809;stop-opacity:0"/></linearGradient><filter id="filter4340" width="1.243" height="1.237" x="-.121" y="-.119" color-interpolation-filters="sRGB"><feGaussianBlur id="feGaussianBlur4342" stdDeviation="2.743"/></filter><filter id="filter4358" width="1.056" height="1.279" x="-.028" y="-.14" color-interpolation-filters="sRGB"><feGaussianBlur id="feGaussianBlur4360" stdDeviation="2.219"/></filter><radialGradient id="radialGradient4380" cx="437.57" cy="110.83" r="96.157" gradientTransform="matrix(2.7335 .096056 -.042042 1.2359 -903.12 -144.43)" gradientUnits="userSpaceOnUse"><stop id="stop4376" offset="0" style="stop-color:#fff"/><stop id="stop4378" offset="1" style="stop-color:#000"/></radialGradient><filter id="filter4398" width="1.871" height="1.421" x="-.436" y="-.21" color-interpolation-filters="sRGB"><feGaussianBlur id="feGaussianBlur4400" stdDeviation="6.559"/></filter><linearGradient id="linearGradient4427" x1="398.15" x2="395.62" y1="140.18" y2="117.81" gradientUnits="userSpaceOnUse"><stop id="stop4423" offset="0" style="stop-color:#000"/><stop id="stop4425" offset="1" style="stop-color:#000;stop-opacity:0"/></linearGradient><linearGradient id="linearGradient4492" x1="-149.34" x2="-175.08" y1="104.76" y2="121.93" gradientUnits="userSpaceOnUse"><stop id="stop4488" offset="0" style="stop-color:#fff"/><stop id="stop4490" offset="1" style="stop-color:#fff;stop-opacity:0"/></linearGradient><linearGradient id="linearGradient4500" x1="-276.04" x2="-234.47" y1="203.45" y2="190.57" gradientUnits="userSpaceOnUse"><stop id="stop4496" offset="0" style="stop-color:#fff"/><stop id="stop4498" offset="1" style="stop-color:#fff;stop-opacity:0"/></linearGradient><linearGradient id="linearGradient4508" x1="-85.985" x2="-78.066" y1="143.38" y2="164.83" gradientUnits="userSpaceOnUse"><stop id="stop4504" offset="0" style="stop-color:#fff"/><stop id="stop4506" offset="1" style="stop-color:#fff;stop-opacity:0"/></linearGradient><linearGradient id="linearGradient4516" x1="-151.32" x2="-139.44" y1="141.23" y2="160.54" gradientUnits="userSpaceOnUse"><stop id="stop4512" offset="0" style="stop-color:#fff"/><stop id="stop4514" offset="1" style="stop-color:#fff;stop-opacity:0"/></linearGradient><linearGradient id="linearGradient4534" x1="440.16" x2="440.16" y1="-15.66" y2="52.752" gradientTransform="matrix(1.3085 0 0 1.2313 -284.72 -79.061)" gradientUnits="userSpaceOnUse"><stop id="stop4530" offset="0" style="stop-color:#d6d7c1"/><stop id="stop4532" offset="1" style="stop-color:#fff8f8"/></linearGradient><linearGradient id="linearGradient6767" x1="-261.93" x2="-274.75" y1="358.46" y2="151.36" gradientTransform="matrix(.64206 0 0 .80232 413.66 -156.48)" gradientUnits="userSpaceOnUse"><stop id="stop6763" offset="0" style="stop-color:#eec73e"/><stop id="stop6765" offset="1" style="stop-color:#f2efe7"/></linearGradient><linearGradient id="linearGradient6810" x1="-238.79" x2="-311.08" y1="257.99" y2="238.62" gradientTransform="matrix(.64206 0 0 .80232 418.22 -163.13)" gradientUnits="userSpaceOnUse"><stop id="stop6786" offset="0" style="stop-color:#000"/><stop id="stop6788" offset="1" style="stop-color:#fff"/></linearGradient><filter id="filter7009" width="1.338" height="2.209" x="-.169" y="-.604" color-interpolation-filters="sRGB"><feGaussianBlur id="feGaussianBlur7011" stdDeviation="12.465"/></filter><linearGradient id="linearGradient7027" x1="492.87" x2="502" y1="410.63" y2="103.96" gradientTransform="matrix(1.3052 0 0 1.3602 -356.42 -115.46)" gradientUnits="userSpaceOnUse"><stop id="stop7023" offset="0" style="stop-color:#eec73e"/><stop id="stop7025" offset="1" style="stop-color:#fb8b00"/></linearGradient><linearGradient id="linearGradient3773" x1="136.91" x2="262.86" y1="240.87" y2="195.23" gradientTransform="matrix(1.1783 0 0 1.159 -41.97 -48.55)" gradientUnits="userSpaceOnUse"><stop id="stop3777" offset="0" style="stop-color:#f0a513"/><stop id="stop3779" offset="1" style="stop-color:#eee"/></linearGradient><linearGradient id="linearGradient4559" x1="-294.97" x2="-318.66" y1="144.48" y2="165.39" gradientUnits="userSpaceOnUse"><stop id="stop4555" offset="0" style="stop-color:#fff"/><stop id="stop4557" offset="1" style="stop-color:#fff;stop-opacity:0"/></linearGradient></defs><g id="layer1" transform="translate(0,160)"><path id="path4549" d="m220.39 295.14v-33.187s-49.945 8.0056-57.864-14.098c-14.172-39.553-20.2-94.97-6.1221-133.01 8.3914-22.674 43.027-20.831 43.027-20.831l-10.75-28.549s-25.069-9.2888-46.559 6.2973c-11.46 8.3118-16.519 22.67-20.407 35.594-12.532 69.116-10.278 130.07 24.489 168.6 19.877 17.911 42.487 21.118 74.19 19.184z" style="opacity:.31416;stroke-width:0;fill:#333"/><path id="path4411" d="m364.01 298c1.2847-11.812 4.944 2.605 9.6505 16.024 0.28815 0.82155-0.58818 1.9387-0.0357 2.6116 39.484 33.952 127.07 36.654 158.12 0 0.5423-0.68108-0.31899-1.7883-0.0358-2.6116 4.5825-13.318 7.9136-27.731 9.1085-16.024 4.8843 47.854-181.79 45.737-176.81 0z" transform="matrix(.76710 0 0 .90685 44.89 78.782)" style="filter:url(#filter7009);stroke-width:0;fill:#000"/><path id="path4429" d="m292.84-99.943c-20.779 0-39.236 9.1697-50.908 23.371-27.353 8.2448-35.034-0.76141-40.136 26.901-3.2615 17.685-21.191 79.021-6.2903 89.963 97.979 22.282 146.65 34.191 241.78-15.116 6.8568-4.5639-3.1494-68.169-6.1946-70.563 2.2066-2.7699-19.215-29.679-46.078-29.679-7.7089 0-14.993 0.90757-21.47 2.4997-6.3387-11.703-20.916-19.907-37.901-19.907-0.5482 0-1.1 0.0433-1.6431 0.0603-9.2245-4.7773-19.839-7.5292-31.164-7.5292z" style="stroke-width:0;fill:url(#linearGradient4534)"/><path id="path3438" d="m199.35-44.357s-10.284 67.056-10.197 100.86c0.0692 26.714 6.615 53.01 8.4699 79.654 3.5664 51.227 5.5697 102.63 5.0984 153.99-0.20053 21.854-9.9161 44.707-3.3715 65.471 4.8786 15.478-1.8558-3.4449 4.8066 16.35 0.40788 1.2119-0.83264 2.86-0.0506 3.8526 55.892 50.085 179.87 54.072 223.84 0 0.76768-1.0047-0.45154-2.6381-0.0506-3.8526 6.4869-19.646-0.65112-0.99087 4.0935-16.35 6.4263-20.804-3.171-43.617-3.3715-65.471-0.47133-51.36 1.5319-102.77 5.0984-153.99 1.8549-26.644 8.4007-52.94 8.4699-79.654 0.0875-33.807-10.197-100.86-10.197-100.86-54.42 21.277-137.45 33.36-232.63 0z" style="stroke-width:0;fill:url(#linearGradient7027)"/><path id="path3451" d="m198.41-46.84s-10.482 67.056-10.393 100.86c0.0706 26.714 257.81 26.714 257.89 0 0.0892-33.807-10.393-100.86-10.393-100.86-55.464 21.277-140.09 33.36-237.1 0z" style="stroke-width:0;fill:url(#linearGradient4235)"/><path id="path3457" d="m201.87 312.44c1.6725-16.196 6.4363 3.5717 12.563 21.971 0.37513 1.1265-0.76572 2.6582-0.0468 3.5808 51.401 46.552 165.42 50.258 205.85 0 0.70601-0.93383-0.41526-2.452-0.0466-3.5808 5.9657-18.26 10.302-38.023 11.858-21.971 6.3585 65.614-236.66 62.711-230.18 0z" style="opacity:.23451;stroke-width:0;fill:#c28b10"/><path id="path4241" d="m189.21 53.059-2.0395 30.768 2.0395 10.256 30.593 12.307 0.00003-43.075z" style="opacity:.11947;stroke-width:0;fill:#565248"/><path id="path4243" d="m202 252.03-2.0395 30.768 2.0395 10.256 30.593 12.307 0.00002-43.075z" style="opacity:.053097;stroke-width:0;fill:#562809"/><path id="path4245" d="m220.39 295.14v-33.187s-49.945 8.0056-57.864-14.098c-14.172-39.553-20.2-94.97-6.1221-133.01 8.3914-22.674 39.801-19.773 39.801-19.773l-2.1498-34.901s-30.446-3.9996-51.936 11.587c-11.46 8.3118-16.519 22.67-20.407 35.594-12.532 69.116-10.278 130.07 24.489 168.6 19.877 17.911 42.487 21.118 74.19 19.184z" style="opacity:.65929;stroke-width:0;fill:url(#linearGradient3773)"/><path id="path4255" d="m165.12 280.82v-30.292s-22.969 7.3073-26.612-12.868c-6.5175-36.103-9.2898-86.687-2.8156-121.41 3.8592-20.696 24.734-15.151 24.734-15.151l0.00056-33.788s-21.421-4.6163-31.304 9.6104c-5.2705 7.5868-7.5969 20.693-9.3852 32.489-5.7636 63.088-4.7268 118.73 11.262 153.9 9.1414 16.349 19.539 19.276 34.12 17.511z" style="opacity:.14602;stroke-width:0;fill:#eee"/><path id="path4269" d="m339.48 259.28c-12.28-37.37-19.21-73.47 2.58-107.14" transform="matrix(1.9563 0 0 1.5891 -520.2 -155.89)" style="opacity:.048673;filter:url(#filter4271);stroke-width:0;fill:#eee"/><path id="path4277" d="m396.28 87.594c-0.56369 0-1.1323 0.02778-1.6875 0.0625 12.466 0.77713 22.344 10.862 22.344 23.188 0 12.832-10.718 23.219-23.906 23.219-12.429 0-22.615-9.2272-23.75-21.031-0.0629 0.77139-0.125 1.5245-0.125 2.3125 0 15.327 12.155 27.75 27.125 27.75s27.094-12.423 27.094-27.75-12.123-27.75-27.094-27.75z" transform="matrix(1.341 0 0 1.3711 -296.64 -92.618)" style="opacity:.23894;filter:url(#filter4340);stroke-width:0;fill:#eee"/><path id="path4281" d="m425.96 112.77a28.397 25.17 0 1 1 -56.794 0 28.397 25.17 0 1 1 56.794 0z" transform="matrix(1.4019 0 0 1.5821 -246.44 -100.48)" style="opacity:.10177;stroke-width:0;fill:#816647"/><path id="path4283" d="m425.96 112.77a28.397 25.17 0 1 1 -56.794 0 28.397 25.17 0 1 1 56.794 0z" transform="matrix(1.341 0 0 1.4414 -142.59 -93.468)" style="opacity:.28761;stroke-width:0;fill:#eee"/><path id="path4286" d="m257.23 108.92c-21.031 0-38.05 16.254-38.05 36.292 0 10.645 4.7817 20.186 12.446 26.823-5.6128-6.6951-9.0096-15.462-9.0096-25.066 0-1.0805 0.0832-2.1131 0.16756-3.1708 1.522 16.185 15.182 28.836 31.848 28.836 17.685 0 32.058-14.242 32.058-31.836 0-16.899-13.246-30.727-29.962-31.793 0.53743-0.0344 1.0874-0.0294 1.6343-0.0428-0.37503-0.0127-0.75378-0.0429-1.1314-0.0429zm1.1314 0.0429c10.067 0.2793 19.17 4.2536 25.814 10.583-6.5306-6.5841-15.399-10.626-25.185-10.626-0.21027 0-0.41788 0.0376-0.62858 0.0429zm26.317 11.098c6.3861 6.6889 10.42 15.857 10.644 26.008 0.004-0.28945 0-0.56588 0-0.85696 0-9.7642-4.0593-18.63-10.644-25.152zm10.644 26.008c-0.48544 19.635-17.367 35.392-38.092 35.392-9.8029 0-18.729-3.5431-25.478-9.3408 6.6668 7.8913 16.388 12.897 27.238 12.897 20.075 0 36.332-17.034 36.332-38.049 0-0.29968 0.004-0.60178 0-0.8998z" style="opacity:.17257;stroke-width:0;fill:#eee"/><path id="path4292" d="m366.28 179.7c-21.031 0-38.05-16.254-38.05-36.292 0-10.645 4.7818-20.186 12.446-26.823-5.6129 6.6951-9.0097 15.462-9.0097 25.066 0 1.0805 0.0832 2.1131 0.16757 3.1707 1.522-16.185 15.182-28.836 31.848-28.836 17.685 0 32.058 14.242 32.058 31.836 0 16.899-13.246 30.727-29.962 31.793 0.53744 0.0342 1.0873 0.029 1.6343 0.0427-0.375 0.0127-0.75377 0.0427-1.1314 0.0427zm1.1314-0.0427c10.067-0.27929 19.17-4.2536 25.814-10.583-6.5307 6.5841-15.399 10.626-25.185 10.626-0.21026 0-0.4179-0.0376-0.62861-0.0427zm26.317-11.098c6.3862-6.6889 10.42-15.857 10.644-26.009 0.004 0.28946 0 0.56587 0 0.85696 0 9.7642-4.0593 18.63-10.644 25.152zm10.644-26.009c-0.48545-19.635-17.367-35.392-38.092-35.392-9.8029 0-18.729 3.5431-25.478 9.3408 6.6668-7.8913 16.388-12.897 27.238-12.897 20.075 0 36.332 17.034 36.332 38.049 0 0.29965 0.004 0.60179 0 0.89978z" style="opacity:.27434;stroke-width:0;fill:#eee"/><path id="path4294" d="m235.67 183.23c-0.73884 0-1.4842 0.0382-2.2119 0.0855 16.339 1.0656 29.286 14.894 29.286 31.793 0 17.594-14.048 31.836-31.334 31.836-16.291 0-29.642-12.652-31.13-28.836-0.0825 1.0577-0.16391 2.0902-0.16391 3.1707 0 21.015 15.931 38.049 35.553 38.049s35.512-17.034 35.512-38.049-15.89-38.049-35.512-38.049z" style="opacity:.048673;stroke-width:0;fill:#562809"/><path id="path4296" d="m425.96 112.77a28.397 25.17 0 1 1 -56.794 0 28.397 25.17 0 1 1 56.794 0z" transform="matrix(1.3703 0 0 1.5821 -234.68 55.266)" style="opacity:.18142;stroke-width:0;fill:url(#linearGradient4427)"/><path id="path4298" d="m425.96 112.77a28.397 25.17 0 1 1 -56.794 0 28.397 25.17 0 1 1 56.794 0z" transform="matrix(1.3107 0 0 1.4414 -133.17 62.276)" style="opacity:.10177;stroke-width:0;fill:url(#linearGradient4338)"/><path id="path4302" d="m366.31 266.43c21.031 0 38.05 16.254 38.05 36.292 0 10.645-4.7817 20.186-12.446 26.823 5.6129-6.6951 9.0096-15.462 9.0096-25.066 0-1.0805-0.0832-2.1131-0.16755-3.1708-1.522 16.185-15.182 28.836-31.848 28.836-17.685 0-32.058-14.242-32.058-31.836 0-16.899 13.246-30.727 29.962-31.793-0.53745-0.0344-1.0873-0.0291-1.6343-0.0428 0.37504-0.0127 0.75376-0.0427 1.1314-0.0427zm-1.1314 0.0427c-10.067 0.2793-19.17 4.2536-25.814 10.583 6.5306-6.5841 15.399-10.626 25.185-10.626 0.21027 0 0.41789 0.0376 0.62857 0.0427zm-26.317 11.098c-6.3861 6.6889-10.42 15.857-10.644 26.009-0.004-0.28944 0-0.56587 0-0.85695 0-9.7642 4.0593-18.63 10.644-25.152zm-10.644 26.009c0.48544 19.635 17.367 35.392 38.092 35.392 9.8029 0 18.729-3.5432 25.478-9.3408-6.6668 7.8913-16.388 12.897-27.238 12.897-20.075 0-36.332-17.034-36.332-38.049 0-0.29966-0.004-0.60181 0-0.89979z" style="opacity:.14159;stroke-width:0;fill:#eee"/><path id="path4304" d="m257.26 337.22c21.031 0 38.05-16.254 38.05-36.292 0-10.645-4.7817-20.186-12.446-26.823 5.6129 6.6951 9.0096 15.462 9.0096 25.066 0 1.0805-0.0832 2.113-0.16755 3.1707-1.522-16.185-15.182-28.836-31.848-28.836-17.685 0-32.058 14.242-32.058 31.836 0 16.899 13.246 30.727 29.962 31.793-0.53744 0.0343-1.0874 0.0289-1.6343 0.0429 0.37503 0.0127 0.75377 0.0427 1.1314 0.0427zm-1.1315-0.0427c-10.067-0.2793-19.17-4.2536-25.814-10.583 6.5306 6.5841 15.399 10.626 25.185 10.626 0.21026 0 0.41786-0.0376 0.62855-0.0427zm-26.317-11.098c-6.3861-6.6889-10.42-15.857-10.644-26.008-0.004 0.28945 0 0.56585 0 0.85695 0 9.7641 4.0593 18.63 10.644 25.152zm-10.644-26.008c0.48542-19.635 17.367-35.392 38.092-35.392 9.8029 0 18.729 3.5431 25.478 9.3408-6.6668-7.8913-16.388-12.897-27.238-12.897-20.075 0-36.332 17.034-36.332 38.049 0 0.29967-0.004 0.60179 0 0.89982z" style="opacity:.11947;stroke-width:0;fill:url(#linearGradient4314)"/><path id="path4344" d="m194.95 324.83c1.6976-16.196 6.5331 3.5717 12.752 21.971 0.38076 1.1265-0.77721 2.6582-0.0474 3.5808 52.174 46.552 167.9 50.258 208.95 0 0.71662-0.93383-0.4215-2.452-0.0474-3.5808 6.0554-18.26 10.457-38.023 12.036-21.971 6.4541 65.614-240.21 62.711-233.64 0z" style="opacity:.23451;stroke-width:0;fill:#ff0"/><path id="path4346" d="m235.67 172.61c-0.73884 0-1.4842 0.0382-2.2119 0.0856 16.339 1.0656 29.286 14.894 29.286 31.793 0 17.594-14.048 31.836-31.334 31.836-16.291 0-29.642-12.652-31.13-28.836-0.0825 1.0577-0.16391 2.0902-0.16391 3.1707 0 21.015 15.931 38.049 35.553 38.049s35.512-17.034 35.512-38.049-15.89-38.049-35.512-38.049z" style="opacity:.048673;stroke-width:0;fill:#ff0"/><path id="path4348" d="m425.96 112.77a28.397 25.17 0 1 1 -56.794 0 28.397 25.17 0 1 1 56.794 0z" transform="matrix(.82310 0 0 1.1953 46.847 83.835)" style="opacity:.10177;stroke-width:0;fill:#ff0"/><path id="path4352" d="m425.96 112.77a28.397 25.17 0 1 1 -56.794 0 28.397 25.17 0 1 1 56.794 0z" transform="matrix(1.3105 0 0 1.125 -209.23 -42.741)" style="opacity:.10177;stroke-width:0;fill:#ff0"/><path id="path4354" d="m198.41-46.84s-10.482 67.056-10.393 100.86c0.0706 26.714 257.81 26.714 257.89 0 0.0892-33.807-10.393-100.86-10.393-100.86-55.464 21.277-140.09 33.36-237.1 0z" style="opacity:.15044;stroke-width:0;fill:#ff0"/><path id="path4356" d="m362.71 94.056c1.3691-9.1092 5.2687 2.0088 10.284 12.357 0.30707 0.63354-0.62682 1.495-0.0381 2.0139 42.077 26.182 135.41 28.266 168.51 0 0.57791-0.52521-0.33994-1.3791-0.0382-2.0139 4.8834-10.27 8.4332-21.385 9.7066-12.357 5.205 36.903-193.72 35.27-188.42 0z" transform="matrix(1.341 0 0 1.3711 -296.64 -92.618)" style="opacity:.17257;filter:url(#filter4358);stroke-width:0;fill:#986601"/><path id="path4362" d="m373.04 46.297c1.3691-9.1092 5.2687 2.0088 10.284 12.357 0.30707 0.63354-0.62682 1.495-0.0381 2.0139 42.077 26.182 135.41 28.266 168.51 0 0.57791-0.52521-0.33994-1.3791-0.0382-2.0139 4.8834-10.27 8.4332-21.385 9.7066-12.357 5.205 36.903-193.72 35.27-188.42 0z" transform="matrix(1.198 0 0 .46483 -243.3 -50.658)" style="opacity:.17257;filter:url(#filter4358);stroke-width:0;fill:#eee"/><path id="path4364" d="m196.05-46.84s-10.545 67.056-10.455 100.86c0.0709 26.714 259.38 26.714 259.45 0 0.0898-33.807-10.455-100.86-10.455-100.86-55.801 21.277-140.94 33.36-238.54 0z" style="opacity:.15044;stroke-width:0;fill:url(#radialGradient4380)"/><path id="path4382" d="m397.56 112.13c-18.411 20.561-8.0906 37.433-18.071 37.433-9.9803 0-37.706-18.468-6.2726-38.812 51.126-33.09-3.7077-36.053 6.2726-36.053s53.466-2.0954 18.071 37.433z" transform="matrix(.44012 0 0 3.8486 257.26 -263.11)" style="opacity:.78319;filter:url(#filter4398);stroke-width:0;fill:#eec73e"/><path id="path4466" d="m-152.31 170.21a80.674 61.957 0 1 1 -161.35 0 80.674 61.957 0 1 1 161.35 0z" transform="matrix(.79919 0 0 0.825 447.34 -161.58)" style="opacity:.18142;stroke-width:0;fill:url(#linearGradient4500)"/><path id="path4468" d="m-129.08 148.91a72.929 61.312 0 1 1 -145.86 0 72.929 61.312 0 1 1 145.86 0z" transform="matrix(.87429 0 0 0.825 458.78 -161.58)" style="opacity:.18142;stroke-width:0;fill:#fff"/><path id="path4470" d="m-117.46 129.55a47.113 34.206 0 1 1 -94.227 0 47.113 34.206 0 1 1 94.227 0z" transform="matrix(.87429 0 0 0.825 458.78 -161.58)" style="opacity:.18142;stroke-width:0;fill:url(#linearGradient4492)"/><path id="path4472" d="m-70.993 168.28a51.631 39.369 0 1 1 -103.26 0 51.631 39.369 0 1 1 103.26 0z" transform="matrix(.87429 0 0 0.825 458.78 -161.58)" style="opacity:.18142;stroke-width:0;fill:#fff"/><path id="path4474" d="m-58.085 198.61a64.539 21.943 0 1 1 -129.08 0 64.539 21.943 0 1 1 129.08 0z" transform="matrix(.87429 0 0 0.825 458.78 -161.58)" style="opacity:.18142;stroke-width:0;fill:#fff"/><path id="path4476" d="m-41.305 138.59a55.504 25.17 0 1 1 -111.01 0 55.504 25.17 0 1 1 111.01 0z" transform="matrix(.87429 0 0 0.825 458.78 -161.58)" style="opacity:.18142;stroke-width:0;fill:url(#linearGradient4516)"/><path id="path4478" d="m-20.652 176.02a46.468 26.461 0 1 1 -92.936 0 46.468 26.461 0 1 1 92.936 0z" transform="matrix(.87429 0 0 0.825 458.78 -161.58)" style="opacity:.18142;stroke-width:0;fill:#fff"/><path id="path4480" d="m-73.574 213.45a86.482 26.461 0 1 1 -172.96 0 86.482 26.461 0 1 1 172.96 0z" transform="matrix(.87429 0 0 0.825 458.78 -161.58)" style="opacity:.18142;stroke-width:0;fill:#fff"/><path id="path4482" d="m-28.397 177.31a54.213 40.66 0 1 1 -108.43 0 54.213 40.66 0 1 1 108.43 0z" transform="matrix(.87429 0 0 0.825 458.78 -161.58)" style="opacity:.18142;stroke-width:0;fill:url(#linearGradient4508)"/><path id="path4518" d="m425.96 112.77a28.397 25.17 0 1 1 -56.794 0 28.397 25.17 0 1 1 56.794 0z" transform="matrix(1.0669 0 0 1.4063 -205.86 -93.928)" style="opacity:.10177;stroke-width:0;fill:#980101"/><path id="path6754" d="m232.58-75.844c-21.741 0-39.366 20.416-39.366 45.582 0 14.88 6.1587 28.089 15.69 36.405-5.103 6.4735-8.2264 15.15-8.2264 24.696 0 14.767 7.4606 27.471 18.178 33.121-5.5239 5.218-9.069 13.268-9.069 22.289 0 15.729 10.763 28.457 24.037 28.457s24.037-12.728 24.037-28.457c0-10.118-4.4657-18.993-11.176-24.044 9.1492-6.2722 15.309-17.964 15.309-31.366 0-8.927-2.7362-17.101-7.2633-23.418 10.395-8.2023 17.215-22.024 17.215-37.684 0-25.166-17.625-45.582-39.366-45.582z" style="stroke-width:0;fill:url(#linearGradient6767)"/><path id="path6769" d="m247.35-76.9c0.44335 0.21471 0.88933 0.41902 1.3242 0.65188 13.499 7.2282 22.873 23.049 22.873 41.395 0 15.66-6.8205 29.482-17.215 37.684 4.5271 6.3165 7.2632 14.491 7.2632 23.418 0 13.402-6.1598 25.093-15.309 31.366 6.7101 5.0519 11.176 13.926 11.176 24.044 0 15.729-10.763 28.457-24.037 28.457-0.34121 0-0.68549-0.008-1.0233-0.0246 3.2871 1.9967 7.0065 3.1341 10.955 3.1341 13.274 0 24.037-12.728 24.037-28.457 0-10.118-4.4657-18.993-11.176-24.045 9.1492-6.2721 15.309-17.964 15.309-31.366 0-8.9269-2.7362-17.101-7.2633-23.418 10.395-8.2023 17.215-22.024 17.215-37.684 0-18.346-9.3541-34.166-22.853-41.395-3.5093-1.8791-7.3002-3.1499-11.276-3.7609z" style="opacity:.048673;stroke-width:0;fill:url(#linearGradient6810)"/><path id="path6792" d="m232.96-76.46c-0.44332 0.21471-0.88933 0.41902-1.3243 0.65188-13.499 7.2282-22.873 23.049-22.873 41.395 0 15.66 6.8206 29.482 17.215 37.684-4.5271 6.3165-7.2633 14.491-7.2633 23.418 0 13.402 6.1598 25.093 15.309 31.366-6.7101 5.0519-11.176 13.926-11.176 24.045 0 15.729 10.763 28.457 24.037 28.457 0.34123 0 0.68553-0.008 1.0233-0.0246-3.2871 1.9967-7.0065 3.1341-10.955 3.1341-13.274 0-24.037-12.728-24.037-28.457 0-10.118 4.4657-18.993 11.176-24.044-9.1492-6.2722-15.309-17.964-15.309-31.366 0-8.9269 2.7362-17.101 7.2633-23.418-10.395-8.2023-17.215-22.024-17.215-37.684 0-18.346 9.3541-34.166 22.853-41.395 3.5092-1.8791 7.3002-3.1499 11.276-3.7609z" style="opacity:.26991;stroke-width:0;fill:#efede4"/><path id="path6796" d="m-285.26 150.21a21.298 20.007 0 1 1 -42.596 0 21.298 20.007 0 1 1 42.596 0z" transform="matrix(.50143 0 0 .57671 367.65 -126.73)" style="opacity:.84071;stroke-width:0;fill:#fff"/><path id="path6806" d="m-285.26 150.21a21.298 20.007 0 1 1 -42.596 0 21.298 20.007 0 1 1 42.596 0z" transform="matrix(.36623 0 0 .39946 330.95 25.81)" style="opacity:.65487;stroke-width:0;fill:#efede4"/><path id="path6808" d="m-285.26 150.21a21.298 20.007 0 1 1 -42.596 0 21.298 20.007 0 1 1 42.596 0z" transform="matrix(.59084 0 0 .66840 396.18 -71.032)" style="opacity:.65487;stroke-width:0;fill:#efede4"/><path id="path4551" d="m-285.26 150.21a21.298 20.007 0 1 1 -42.596 0 21.298 20.007 0 1 1 42.596 0z" transform="matrix(1.1984 0 0 .80251 650.37 -202.6)" style="opacity:.84071;stroke-width:0;fill:url(#linearGradient4559)"/></g><metadata/></svg>